<svg width="2000" height="1400" xmlns="http://www.w3.org/2000/svg"><path fill="none" d="M0 0h2000v1400H0z"/><path d="M0 700h0c71.075-36.284 142.15-72.567 218-74 75.85-1.433 156.477 31.986 230 77 73.523 45.014 139.943 101.624 211 77 71.057-24.624 146.75-130.48 226-131 79.25-.52 162.056 104.297 234 107 71.944 2.703 133.026-96.707 208-142 74.974-45.293 163.838-36.47 238 9s133.62 127.588 216 146c82.38 18.412 187.68-26.882 228-49 40.32-22.118 15.66-21.059 31-20" fill="none" stroke="#ffab53" stroke-width="5" stroke-linecap="round"/></svg>